<svg width="18" height="17" viewBox="0 0 18 17" fill="none" xmlns="http://www.w3.org/2000/svg">
<path fill-rule="evenodd" clip-rule="evenodd" d="M17.25 9.5C16.8353 9.5 16.5 9.164 16.5 8.75V2.34125C16.5 2.156 16.353 2 16.1782 2L3.32175 2C3.147 2 3 2.156 3 2.34125L3 5L6.75075 5C7.1655 5 7.50075 5.336 7.50075 5.75L7.50075 8.75C7.50075 9.164 7.1655 9.5 6.75075 9.5L3 9.5L3 12.1588C3 12.3433 3.147 12.5 3.32175 12.5L9.75 12.5C10.1648 12.5 10.5 12.836 10.5 13.25C10.5 13.664 10.1648 14 9.75 14L3.32175 14C2.3175 14 1.5 13.1735 1.5 12.1588L1.5 9.5H0.75C0.33525 9.5 0 9.164 0 8.75L0 5.75C0 5.336 0.33525 5 0.75 5H1.5L1.5 2.34125C1.5 1.32575 2.3175 0.5 3.32175 0.5L16.1782 0.5C17.1825 0.5 18 1.32575 18 2.34125V8.75C18 9.164 17.6647 9.5 17.25 9.5ZM1.5 6.5L1.5 8L6.00075 8L6.00075 6.5L1.5 6.5ZM12.75 12.5L14.2507 12.5V11C14.2507 10.586 14.586 10.25 15.0007 10.25C15.4155 10.25 15.7507 10.586 15.7507 11V12.5H17.25C17.6647 12.5 18 12.836 18 13.25C18 13.664 17.6647 14 17.25 14H15.7507V15.5C15.7507 15.914 15.4155 16.25 15.0007 16.25C14.586 16.25 14.2507 15.914 14.2507 15.5V14L12.75 14C12.3352 14 12 13.664 12 13.25C12 12.836 12.3352 12.5 12.75 12.5Z" fill="#495057"/>
</svg>
