<svg width="17" height="16" viewBox="0 0 17 16" fill="none" xmlns="http://www.w3.org/2000/svg">
<path fill-rule="evenodd" clip-rule="evenodd" d="M7.06724 12.8C3.53271 12.8 0.667236 9.93445 0.667236 6.39962C0.667236 2.86542 3.53284 0 7.06724 0C10.6016 0 13.4672 2.86542 13.4672 6.39962C13.4672 8.03786 12.8518 9.53235 11.8394 10.6644L16.459 14.8876C16.7199 15.1261 16.7381 15.531 16.4996 15.7918C16.2611 16.0527 15.8563 16.0709 15.5954 15.8324L10.8915 11.5321C9.82457 12.3285 8.50094 12.8 7.06724 12.8ZM10.5667 10.1372C10.5191 10.1672 10.4747 10.204 10.4349 10.2475C10.4245 10.2588 10.4147 10.2704 10.4053 10.2822C9.50896 11.0537 8.34252 11.52 7.06721 11.52C4.23962 11.52 1.94721 9.22753 1.94721 6.39962C1.94721 3.57236 4.23972 1.28 7.06721 1.28C9.8947 1.28 12.1872 3.57236 12.1872 6.39962C12.1872 7.87407 11.564 9.20296 10.5667 10.1372Z" fill="#495057"/>
</svg>
